<?xml version="1.0" encoding="utf-8"?>
<!DOCTYPE svg PUBLIC "-//W3C//DTD SVG 1.0//EN" "http://www.w3.org/TR/2001/REC-SVG-20010904/DTD/svg10.dtd">
<svg version="1.0" xmlns="http://www.w3.org/2000/svg" width="406px" height="124px" viewBox="0 0 406 124" preserveAspectRatio="xMidYMid meet">
 <g fill="#3b82f6">
  <path d="M22.10 122.20 c-9.05 -2 -16.80 -8.85 -19.95 -17.75 -1.15 -3.25 -1.30 -4.45 -1.30 -10.20 0 -7.30 0.70 -10.85 3.25 -16.20 5 -10.45 18.05 -16.05 31 -13.35 5.05 1.10 8.75 3.10 12.30 6.60 5.45 5.45 7.55 11.85 7.60 23.10 l0 5.60 -17.50 0 -17.50 0 0.95 1.95 c2.20 4.30 6.50 6.35 12.45 5.95 4.35 -0.30 7 -1.25 9.75 -3.45 1.05 -0.85 2 -1.45 2.10 -1.40 1 1.05 7.75 10.30 7.75 10.65 0 0.25 -0.95 1.35 -2.10 2.40 -2.60 2.40 -8.05 5.10 -12.40 6.10 -4 0.95 -12.10 0.95 -16.40 0z m14.40 -36.20 c0 -2.35 -1.10 -4.75 -2.45 -5.45 -0.50 -0.30 -1.95 -0.75 -3.25 -1.05 -5.25 -1.15 -9.35 1.50 -10.55 6.90 l-0.35 1.60 8.30 0 8.30 0 0 -2z"/>
  <path d="M71.55 122.25 c-2.85 -0.90 -7 -3.75 -8.90 -6.15 -4.40 -5.45 -6.25 -12 -6.30 -22.10 0 -12.15 2.35 -19.30 8.15 -24.65 4.05 -3.75 7.35 -5 13.25 -5.05 5.20 -0.05 7.75 0.85 11.20 3.95 l2.05 1.85 0 -14.55 0 -14.55 9.50 0 9.50 0 0 40.50 0 40.50 -8.45 0 -8.45 0 -0.30 -1.50 c-0.15 -0.80 -0.45 -2.15 -0.60 -3 l-0.30 -1.50 -2.50 2.50 c-3.30 3.25 -6.65 4.50 -11.80 4.45 -2.10 0 -4.85 -0.35 -6.05 -0.70z m15.65 -14.95 c0.90 -0.35 2.10 -1.30 2.70 -2.05 1.05 -1.30 1.10 -1.90 1.10 -11.70 l0 -10.35 -1.55 -1.60 c-3.40 -3.50 -9.30 -3.35 -11.85 0.30 -3.35 4.70 -3.45 19.05 -0.15 23.60 0.50 0.70 1.45 1.55 2.10 1.85 1.60 0.85 5.60 0.80 7.65 -0.05z"/>
  <path d="M127.65 122.10 c-5.50 -1.95 -8.95 -5.50 -10.65 -11 -0.90 -2.90 -1 -4.80 -1 -24.50 l-0.05 -21.35 9.30 0 9.30 0 -0.05 18.85 c-0.05 20.80 0.10 21.65 2.95 23.10 3.30 1.75 10.15 0.45 11.55 -2.15 0.30 -0.65 0.50 -8.05 0.50 -20.50 l0 -19.55 9.50 0 9.50 0 0 28.50 0 28.50 -9 0 -9 0 0 -1.85 c0 -1.05 -0.15 -2.40 -0.30 -3 -0.30 -1 -0.40 -0.95 -2.30 0.95 -3.30 3.30 -6.75 4.60 -12.65 4.80 -3.85 0.10 -5.60 -0.10 -7.60 -0.80z"/>
  <path d="M278.80 57.70 c-5.05 -0.90 -7.65 -2.10 -10.55 -4.75 -3.65 -3.35 -3.75 -3.75 -3.75 -13.65 l0 -8.75 1.90 0.65 1.85 0.65 0.25 6.15 c0.20 5 0.40 6.25 1.10 6.65 0.60 0.40 1.05 0.35 1.60 -0.10 0.65 -0.55 0.80 -1.75 0.80 -5.85 0 -2.85 0.20 -5.20 0.40 -5.20 0.20 0 4.65 1.55 9.85 3.50 5.25 1.90 10.05 3.50 10.75 3.50 0.70 0 5.20 -2.25 10 -4.95 l8.75 -4.95 0.15 8.55 c0.10 5.05 -0.05 9.35 -0.35 10.40 -1.15 3.90 -6.65 7.30 -13.65 8.45 -4.40 0.70 -14.40 0.55 -19.10 -0.30z"/>
  <path d="M323.75 41.90 c0.20 -2 0.45 -5.30 0.50 -7.30 0.10 -2.50 0.40 -3.95 0.95 -4.55 0.60 -0.65 0.80 -1.95 0.80 -5.45 0 -2.55 -0.10 -4.60 -0.20 -4.60 -0.10 0 -7.30 4.05 -16 9 -8.70 4.95 -16.35 9 -17 9 -0.70 0 -1.85 -0.25 -2.65 -0.55 -2.35 -0.95 -35.25 -13 -37.65 -13.80 -1.25 -0.45 -2.60 -1.10 -3 -1.45 -0.65 -0.60 -0.65 -0.80 0 -1.40 0.40 -0.35 8.05 -5 17 -10.25 12.25 -7.25 16.50 -9.55 17.35 -9.30 2.10 0.50 42.40 15.85 43.05 16.35 0.40 0.35 0.60 2.30 0.60 6.35 0 3.70 0.20 6.05 0.55 6.40 0.35 0.35 0.65 2 0.70 3.75 0.05 1.75 0.25 5 0.50 7.30 l0.40 4.10 -3.15 0 -3.15 0 0.40 -3.60z"/>
 </g>
 <g fill="#0c3459">
  <path d="M274.30 122.15 c-5.65 -1.70 -10.50 -6.25 -12.05 -11.35 -1.05 -3.40 -0.95 -6.60 0.30 -10.55 2.60 -8.45 11.10 -12.75 25.20 -12.75 l5.75 0 0 -2.50 c0 -4.85 -2.20 -7.50 -6.25 -7.50 -2.70 0 -4.70 1.25 -5.10 3.15 -0.20 0.90 -0.30 1.75 -0.25 2 0.05 0.20 -4.20 0.35 -9.45 0.35 l-9.60 0 0.25 -2.20 c0.55 -4.75 3.85 -9.70 8.40 -12.55 5.65 -3.55 15.75 -5.10 23.20 -3.55 7.95 1.65 12.95 5.15 15.95 11.30 l1.60 3.25 0.25 18.50 c0.30 17.55 0.35 18.65 1.40 21.25 0.60 1.50 1.10 2.80 1.10 2.90 0 0.05 -4.25 0.10 -9.50 0.10 l-9.45 0 -0.60 -2.10 c-0.35 -1.20 -0.70 -2.25 -0.75 -2.35 -0.10 -0.10 -1.10 0.65 -2.25 1.65 -3.15 2.65 -6.65 3.80 -11.60 3.75 -2.25 0 -5.20 -0.35 -6.55 -0.80z m16.05 -13.60 c1.15 -0.55 2.30 -1.40 2.60 -1.95 0.30 -0.60 0.55 -2.85 0.55 -5.05 l0 -4.05 -4.10 0 c-4.70 0 -6.80 0.90 -8.15 3.45 -0.80 1.55 -1 5.40 -0.35 6.35 1.60 2.30 5.85 2.85 9.45 1.25z"/>
  <path d="M331.70 122 c-3.90 -1.25 -7.15 -4.10 -8.75 -7.60 -1.20 -2.60 -1.20 -3 -1.35 -19.25 l-0.15 -16.65 -3.50 0 -3.45 0 0 -6.75 0 -6.70 3.40 -0.15 3.35 -0.15 0.05 -7 c0.05 -3.85 0.20 -6.95 0.40 -6.85 0.15 0.05 4.35 0.10 9.30 0.10 l9 0 0 7 0 7 4.75 0 4.75 0 0 6.75 0 6.75 -4.75 0 -4.80 0 0.15 13.50 c0.15 13.20 0.15 13.50 1.30 14.60 0.95 0.95 1.70 1.15 5 1.25 l3.85 0.10 0 6.90 0 6.90 -2.50 0.55 c-4.10 1 -12.50 0.80 -16.05 -0.30z"/>
  <path d="M372.65 122.25 c-6.60 -1.45 -13 -5.55 -16.55 -10.70 -3.85 -5.60 -5.10 -9.90 -5.10 -17.55 0.05 -12.15 4 -20.55 12.05 -25.65 10.50 -6.65 26.60 -5.35 34.70 2.85 5.20 5.30 7.25 11.55 7.25 22.15 l0 6.65 -17.30 0 -17.25 0 0.35 1.15 c0.60 1.95 1.75 3.30 4.05 4.80 5.05 3.35 13.65 2.40 19.35 -2.05 0.95 -0.80 1.50 -0.95 1.65 -0.55 0.10 0.35 1.50 2.25 3.10 4.25 5.10 6.50 4.95 5.95 2.15 8.45 -2.95 2.65 -7.15 4.80 -11.80 6.05 -4.15 1.10 -12 1.15 -16.65 0.15z m14.15 -36.60 c-0.55 -4.35 -3 -6.30 -7.85 -6.30 -4.60 0 -7.15 2.20 -8.70 7.55 l-0.30 1.10 8.60 0 8.60 0 -0.35 -2.35z"/>
  <path d="M174.50 93.50 l0 -28.50 8.70 0 8.65 0 0.35 1.55 c0.15 0.85 0.30 2.45 0.30 3.55 l0 2 3.10 -2.80 c4.20 -3.85 7.30 -5 13.40 -5 4.25 -0.05 5.05 0.10 7.60 1.35 2.80 1.35 6.40 4.85 6.40 6.20 0 1 0.25 0.85 3.10 -2 4.40 -4.40 9.90 -6.30 16.40 -5.65 7.35 0.75 12.10 4.85 14.40 12.55 0.60 2 0.80 6.70 0.95 23.90 l0.25 21.35 -9.55 0 -9.55 0 0 -18.60 c0 -19 -0.20 -21.55 -1.95 -23.10 -2.20 -2 -7.30 -1.40 -10 1.15 l-1.55 1.45 0 19.55 0 19.55 -9.50 0 -9.50 0 0 -19.50 c0 -21.60 -0.05 -21.90 -3.05 -22.95 -2.25 -0.75 -3.90 -0.65 -6.20 0.40 -4 1.85 -3.80 0.55 -3.75 22.50 l0 19.55 -9.50 0 -9.50 0 0 -28.50z"/>
 </g>
</svg>